<svg xmlns="http://www.w3.org/2000/svg" version="1.1" xmlns:xlink="http://www.w3.org/1999/xlink" xmlns:svgjs="http://svgjs.dev/svgjs" width="2000" height="1500" viewBox="0 0 2000 1500"><rect width="2000" height="1500" fill="#ffffff"></rect><g transform="matrix(0.75,0,0,0.75,249.090909090909,333.99682398452603)"><svg viewBox="0 0 396 220" data-background-color="#ffffff" preserveAspectRatio="xMidYMid meet" height="1111" width="2000" xmlns="http://www.w3.org/2000/svg" xmlns:xlink="http://www.w3.org/1999/xlink"><g id="tight-bounds" transform="matrix(1,0,0,1,0.2400000000000091,-0.16417794970985256)"><svg viewBox="0 0 395.52 220.3283558994197" height="220.3283558994197" width="395.52"><g><svg viewBox="0 0 395.52 220.3283558994197" height="220.3283558994197" width="395.52"><g><svg viewBox="0 0 395.52 220.3283558994197" height="220.3283558994197" width="395.52"><g id="textblocktransform"><svg viewBox="0 0 395.52 220.3283558994197" height="220.3283558994197" width="395.52" id="textblock"><g><svg viewBox="0 0 395.52 220.3283558994197" height="220.3283558994197" width="395.52"><g transform="matrix(1,0,0,1,0,0)"><svg width="395.52" viewBox="0.85 -36.5 77.55000000000001 43.2" height="220.3283558994197" data-palette-color="#35185a"><path d="M15.85 6.7L15.85 6.7Q11.3 6.7 8.38 5.68 5.45 4.65 3.78 2.95 2.1 1.25 1.48-0.95 0.85-3.15 0.85-5.5L0.85-5.5 0.85-12.1Q0.85-12.75 1.03-13.23 1.2-13.7 1.5-13.95L1.5-13.95 8-19.4Q8.25-19.6 8.65-19.73 9.05-19.85 9.6-19.85L9.6-19.85 16.85-19.85Q17.4-19.85 17.82-19.73 18.25-19.6 18.55-19.35L18.55-19.35 18.55-28.75Q18.55-29.4 18.73-29.85 18.9-30.3 19.25-30.6L19.25-30.6 25.7-36.05Q25.95-36.25 26.38-36.38 26.8-36.5 27.3-36.5L27.3-36.5 35.15-36.5Q36.35-36.5 36.9-35.95 37.45-35.4 37.45-34.2L37.45-34.2 37.45-9.45Q37.45-7.1 36.77-5.13 36.1-3.15 34.4-1.75L34.4-1.75 27.95 3.7Q26.25 5.1 23.35 5.9 20.45 6.7 15.85 6.7ZM36.95-9.45L36.95-9.45 36.95-34.2Q36.95-35.15 36.52-35.58 36.1-36 35.15-36L35.15-36 27.3-36Q26.35-36 25.93-35.58 25.5-35.15 25.5-34.2L25.5-34.2 25.5-11.45Q25.5-10.45 24.93-9.78 24.35-9.1 22.2-9.1L22.2-9.1Q19.9-9.1 19.28-9.78 18.65-10.45 18.65-11.45L18.65-11.45 18.65-17.55Q18.65-18.5 18.23-18.93 17.8-19.35 16.85-19.35L16.85-19.35 9.6-19.35Q8.65-19.35 8.22-18.93 7.8-18.5 7.8-17.55L7.8-17.55 7.8-9.45Q7.8-7.15 8.43-5.28 9.05-3.4 10.68-2.08 12.3-0.75 15.13 0 17.95 0.75 22.3 0.75L22.3 0.75Q26.7 0.75 29.55 0 32.4-0.75 34.02-2.08 35.65-3.4 36.3-5.28 36.95-7.15 36.95-9.45ZM30.95-10.65L30.95-31.5 31.45-31.5 31.45-10.65Q31.45-7.7 29.58-5.8 27.7-3.9 22.4-3.9L22.4-3.9Q19.6-3.9 17.78-4.4 15.95-4.9 14.9-5.78 13.85-6.65 13.43-7.9 13-9.15 13-10.65L13-10.65 13-14.6 13.5-14.6 13.5-10.65Q13.5-7.8 15.38-6.1 17.25-4.4 22.4-4.4L22.4-4.4Q27.35-4.4 29.15-6.13 30.95-7.85 30.95-10.65L30.95-10.65ZM69.65 5.95L69.65 5.95 53.9 5.95Q47.35 5.95 44.22 2.55 41.1-0.85 41.1-6.25L41.1-6.25 41.1-20.35Q41.1-23.1 41.9-25.1 42.7-27.1 44.25-28.45L44.25-28.45 50.7-33.9Q52.25-35.2 54.67-35.85 57.1-36.5 60.35-36.5L60.35-36.5 72.85-36.5Q74.05-36.5 74.6-35.95 75.15-35.4 75.15-34.2L75.15-34.2 75.15-28.15Q75.15-27.5 74.97-27.05 74.8-26.6 74.45-26.3L74.45-26.3 67.95-20.9Q67.75-20.7 67.32-20.55 66.9-20.4 66.4-20.4L66.4-20.4 59.9-20.4 59.9-13.2Q59.95-13.3 60.07-13.43 60.2-13.55 60.3-13.65L60.3-13.65 66.75-19.1Q67-19.3 67.42-19.43 67.85-19.55 68.35-19.55L68.35-19.55 76.1-19.55Q77.3-19.55 77.85-19 78.4-18.45 78.4-17.25L78.4-17.25 78.4-1.8Q78.4-1.15 78.22-0.7 78.05-0.25 77.7 0.05L77.7 0.05 71.2 5.45Q71 5.65 70.57 5.8 70.15 5.95 69.65 5.95ZM60.35 0L76.1 0Q77.05 0 77.47-0.43 77.9-0.85 77.9-1.8L77.9-1.8 77.9-17.25Q77.9-18.2 77.47-18.63 77.05-19.05 76.1-19.05L76.1-19.05 68.35-19.05Q67.4-19.05 66.97-18.63 66.55-18.2 66.55-17.25L66.55-17.25 66.55-9.45 61.7-9.45Q60.55-9.45 59.97-10.05 59.4-10.65 59.4-11.9L59.4-11.9 59.4-23.85Q59.4-25.1 60.15-25.73 60.9-26.35 62.45-26.35L62.45-26.35 72.85-26.35Q73.8-26.35 74.22-26.78 74.65-27.2 74.65-28.15L74.65-28.15 74.65-34.2Q74.65-35.15 74.22-35.58 73.8-36 72.85-36L72.85-36 60.35-36Q54.1-36 51.07-33.5 48.05-31 48.05-25.8L48.05-25.8 48.05-10.2Q48.05-5 51.07-2.5 54.1 0 60.35 0L60.35 0ZM72.45-4.5L62.5-4.5Q59.75-4.5 58-4.85 56.25-5.2 55.25-5.98 54.25-6.75 53.87-7.98 53.5-9.2 53.5-10.95L53.5-10.95 53.5-24.95Q53.5-28.5 55.1-30 56.7-31.5 61.5-31.5L61.5-31.5 70.15-31.5 70.15-31 61.5-31Q57.1-31 55.55-29.63 54-28.25 54-24.95L54-24.95 54-10.95Q54-7.7 55.72-6.35 57.45-5 62.5-5L62.5-5 71.95-5 71.95-14.55 72.45-14.55 72.45-4.5Z" opacity="1" transform="matrix(1,0,0,1,0,0)" fill="#35185a" class="wordmark-text-0" data-fill-palette-color="primary" id="text-0"></path></svg></g></svg></g></svg></g></svg></g><g></g></svg></g><defs></defs></svg><rect width="395.52" height="220.3283558994197" fill="none" stroke="none" visibility="hidden"></rect></g></svg></g></svg>